<?xml version="1.0" standalone="no"?><svg xmlns:xlink="http://www.w3.org/1999/xlink" xmlns="http://www.w3.org/2000/svg" viewBox="0 0 1000 499.99999999999994" preserveAspectRatio="xMaxYMax slice"><g transform="scale(0.8710801393728222)"><rect x="0" y="0" width="1148" height="574" fill="#222831"/><polygon points="382.67,0 574,0 574,191.33" fill="#32E0C4"/><polygon points="574,0 765.33,0 765.33,191.33" fill="#EEEEEE"/><polygon points="956.6600000000001,0 956.6600000000001,191.33 765.33,191.33" fill="#32E0C4"/><polygon points="956.67,0 1148,0 956.67,191.33" fill="#EEEEEE"/><polygon points="574,191.33 574,382.66 382.67,382.66" fill="#EEEEEE"/><polygon points="574,191.33 765.33,191.33 574,382.66" fill="#32E0C4"/><polygon points="956.6600000000001,191.33 956.6600000000001,382.66 765.33,382.66" fill="#32E0C4"/><polygon points="956.67,191.33 1148,191.33 956.67,382.66" fill="#32E0C4"/><polygon points="191.33,382.67 382.66,382.67 191.33,574" fill="#EEEEEE"/><polygon points="574,382.67 765.33,574 574,574" fill="#EEEEEE"/><polygon points="956.6600000000001,382.67 956.6600000000001,574 765.33,574" fill="#32E0C4"/></g></svg>